<?xml version="1.0" standalone="no"?>
<!DOCTYPE svg PUBLIC "-//W3C//DTD SVG 20010904//EN"
 "http://www.w3.org/TR/2001/REC-SVG-20010904/DTD/svg10.dtd">
<svg version="1.0" xmlns="http://www.w3.org/2000/svg"
 width="940.000000pt" height="884.000000pt" viewBox="0 0 940.000000 884.000000"
 preserveAspectRatio="xMidYMid meet">

<g transform="translate(0.000000,884.000000) scale(0.100000,-0.100000)"
fill="#000000" stroke="none">
<path d="M4662 8498 c-22 -40 -145 -271 -275 -513 -129 -242 -321 -602 -427
-800 -106 -198 -279 -522 -385 -720 -105 -198 -297 -556 -425 -795 -128 -239
-319 -597 -425 -795 -106 -198 -279 -522 -385 -720 -106 -198 -297 -556 -425
-795 -128 -239 -337 -631 -465 -870 -128 -239 -316 -590 -417 -780 -419 -783
-555 -1041 -552 -1045 2 -2 1945 -5 4317 -7 3007 -2 4312 0 4312 8 0 5 -4 14
-9 20 -5 5 -110 191 -234 414 -123 223 -356 641 -517 930 -161 289 -359 644
-440 790 -81 146 -358 643 -615 1105 -257 462 -666 1196 -908 1630 -242 435
-517 930 -612 1100 -628 1130 -1058 1901 -1065 1908 -4 5 -25 -25 -48 -65z
m-121 -2973 c-6 -902 -11 -1941 -11 -2310 0 -368 -3 -775 -7 -902 l-6 -233
-56 -15 c-31 -9 -213 -63 -406 -120 -542 -160 -1089 -321 -1210 -355 -60 -17
-220 -65 -355 -105 -135 -40 -288 -85 -340 -100 -52 -14 -252 -73 -445 -130
-535 -158 -667 -196 -671 -193 -3 4 97 194 391 743 188 352 311 581 542 1015
64 118 202 377 308 575 188 350 301 562 548 1025 66 124 167 313 225 420 57
107 179 335 270 505 90 171 193 362 227 425 34 63 122 228 195 365 73 138 179
336 235 440 57 105 176 327 265 495 90 168 195 364 234 437 l71 131 3 -236 c2
-130 -2 -975 -7 -1877z m316 1448 c-3 -10 -5 -4 -5 12 0 17 2 24 5 18 2 -7 2
-21 0 -30z m-10 -2510 c-2 -27 -3 -5 -3 47 0 52 1 74 3 48 2 -27 2 -69 0 -95z
m-10 -1500 c-2 -27 -3 -5 -3 47 0 52 1 74 3 48 2 -27 2 -69 0 -95z m-2894
-2000 c-24 -2 -62 -2 -85 0 -24 2 -5 4 42 4 47 0 66 -2 43 -4z m770 0 c-24 -2
-62 -2 -85 0 -24 2 -5 4 42 4 47 0 66 -2 43 -4z m764 0 c-20 -2 -52 -2 -70 0
-17 2 0 4 38 4 39 0 53 -2 32 -4z m761 0 c-10 -2 -28 -2 -40 0 -13 2 -5 4 17
4 22 1 32 -1 23 -4z"/>
</g>
</svg>
